<?xml version="1.0" standalone="no"?>
<!DOCTYPE svg PUBLIC "-//W3C//DTD SVG 20010904//EN"
 "http://www.w3.org/TR/2001/REC-SVG-20010904/DTD/svg10.dtd">
<svg version="1.0" xmlns="http://www.w3.org/2000/svg"
 width="700.000000pt" height="700.000000pt" viewBox="0 0 700.000000 700.000000"
 preserveAspectRatio="xMidYMid meet">
<metadata>
Created by potrace 1.11, written by Peter Selinger 2001-2013
</metadata>
<g transform="translate(0.000000,700.000000) scale(0.100000,-0.100000)"
fill="#000000" stroke="none">
<path d="M3248 6935 c-1 -1 -32 -6 -68 -9 -278 -26 -509 -77 -810 -176 -52
-18 -99 -35 -105 -40 -5 -4 -27 -13 -48 -20 -22 -7 -73 -28 -115 -48 -43 -20
-79 -36 -82 -37 -13 -3 -173 -88 -245 -130 -348 -206 -633 -445 -905 -761 -35
-41 -132 -163 -150 -190 -262 -385 -385 -628 -499 -984 -54 -166 -117 -443
-127 -553 -2 -29 -7 -58 -9 -65 -11 -31 -20 -223 -20 -432 0 -197 5 -290 19
-405 2 -16 7 -52 10 -80 6 -42 47 -256 62 -317 85 -356 247 -728 459 -1058 59
-92 210 -297 244 -332 9 -9 39 -42 66 -74 256 -298 657 -608 1030 -796 224
-113 499 -217 695 -263 8 -2 45 -10 81 -19 70 -16 78 -18 174 -35 93 -16 116
-20 178 -26 32 -4 68 -9 80 -11 40 -10 540 -13 617 -4 41 4 104 11 140 14 36
4 99 13 140 21 41 7 93 17 115 21 22 4 45 8 50 10 6 1 42 10 80 19 529 126
1049 397 1463 764 293 258 506 519 715 869 28 47 161 315 190 382 49 116 124
336 162 480 17 64 66 316 71 360 3 30 7 65 10 78 13 64 19 180 19 407 0 224
-4 313 -20 425 -3 19 -7 53 -10 75 -2 22 -7 51 -10 65 -3 14 -8 39 -10 55 -34
200 -116 487 -181 632 -13 31 -24 60 -24 65 0 16 -128 276 -183 373 -92 163
-256 401 -343 501 -11 12 -36 42 -56 66 -165 198 -489 480 -724 631 -396 253
-852 436 -1254 502 -19 3 -46 7 -60 10 -35 6 -75 12 -145 20 -32 4 -68 9 -80
12 -22 6 -581 14 -587 8z m482 -828 c25 -4 72 -9 105 -12 33 -4 92 -13 130
-20 39 -8 84 -17 102 -20 60 -10 268 -73 375 -114 707 -269 1276 -855 1527
-1575 33 -94 86 -287 96 -346 3 -19 10 -57 15 -85 39 -212 45 -551 14 -780
-22 -157 -90 -446 -123 -520 -5 -11 -24 -58 -41 -105 -164 -431 -488 -849
-880 -1139 -438 -322 -978 -502 -1520 -504 -134 -1 -270 6 -360 17 -14 2 -48
7 -75 10 -76 11 -260 53 -355 83 -47 14 -90 27 -96 29 -29 5 -210 82 -299 126
-195 96 -430 252 -568 376 -74 67 -232 227 -272 278 -22 27 -45 55 -52 62 -60
63 -217 309 -287 449 -72 144 -162 372 -181 456 -2 12 -13 56 -24 97 -11 41
-23 91 -26 110 -3 20 -8 47 -10 60 -50 246 -52 615 -6 890 108 637 446 1215
941 1610 216 172 494 330 730 415 53 19 266 84 295 89 11 3 43 9 70 15 64 14
100 20 150 27 22 3 51 7 65 10 14 2 61 7 105 10 44 4 81 7 82 8 6 5 333 -2
373 -7z"/>
<path d="M3134 5595 c-2 -5 -3 -611 -2 -1345 l3 -1335 795 0 795 0 3 283 2
282 -517 0 -518 0 0 1060 c0 583 -2 1061 -5 1061 -3 1 -128 2 -279 3 -175 1
-275 -3 -277 -9z"/>
</g>
</svg>
